<?xml version="1.0" standalone="no"?>
<!DOCTYPE svg PUBLIC "-//W3C//DTD SVG 20010904//EN"
 "http://www.w3.org/TR/2001/REC-SVG-20010904/DTD/svg10.dtd">
<svg version="1.0" xmlns="http://www.w3.org/2000/svg"
 width="512.000000pt" height="512.000000pt" viewBox="0 0 512.000000 512.000000"
 preserveAspectRatio="xMidYMid meet">
<metadata>
Created by potrace 1.11, written by Peter Selinger 2001-2013
</metadata>
<g transform="translate(0.000000,512.000000) scale(0.100000,-0.100000)"
fill="#000000" stroke="none">
<path d="M2130 4475 l0 -645 650 0 650 0 0 645 0 645 -650 0 -650 0 0 -645z"/>
<path d="M590 3700 l0 -650 634 0 c349 0 641 -3 650 -6 15 -6 16 56 16 650 l0
656 -650 0 -650 0 0 -650z"/>
<path d="M2960 3576 c0 -12 -67 -224 -180 -566 -26 -80 -83 -253 -125 -385
-43 -132 -102 -314 -131 -405 -30 -90 -50 -167 -46 -171 4 -4 52 -22 107 -39
55 -18 138 -45 185 -60 47 -16 213 -69 370 -120 157 -50 323 -104 370 -120
289 -97 492 -161 497 -157 7 8 59 162 163 487 84 260 146 453 289 889 28 85
49 156 47 158 -4 5 -127 47 -256 88 -63 20 -209 67 -325 105 -115 37 -377 123
-581 189 -204 67 -374 121 -378 121 -3 0 -6 -6 -6 -14z"/>
<path d="M840 2160 l0 -650 645 0 645 0 0 650 0 650 -645 0 -645 0 0 -650z"/>
<path d="M1470 650 l0 -650 645 0 645 0 0 650 0 650 -645 0 -645 0 0 -650z"/>
</g>
</svg>
